%TF.GenerationSoftware,KiCad,Pcbnew,6.0.11+dfsg-1~bpo11+1*%
%TF.CreationDate,2023-03-12T17:24:38+00:00*%
%TF.ProjectId,tp4056,74703430-3536-42e6-9b69-6361645f7063,rev?*%
%TF.SameCoordinates,Original*%
%TF.FileFunction,Copper,L1,Top*%
%TF.FilePolarity,Positive*%
%FSLAX46Y46*%
G04 Gerber Fmt 4.6, Leading zero omitted, Abs format (unit mm)*
G04 Created by KiCad (PCBNEW 6.0.11+dfsg-1~bpo11+1) date 2023-03-12 17:24:38*
%MOMM*%
%LPD*%
G01*
G04 APERTURE LIST*
G04 Aperture macros list*
%AMRoundRect*
0 Rectangle with rounded corners*
0 $1 Rounding radius*
0 $2 $3 $4 $5 $6 $7 $8 $9 X,Y pos of 4 corners*
0 Add a 4 corners polygon primitive as box body*
4,1,4,$2,$3,$4,$5,$6,$7,$8,$9,$2,$3,0*
0 Add four circle primitives for the rounded corners*
1,1,$1+$1,$2,$3*
1,1,$1+$1,$4,$5*
1,1,$1+$1,$6,$7*
1,1,$1+$1,$8,$9*
0 Add four rect primitives between the rounded corners*
20,1,$1+$1,$2,$3,$4,$5,0*
20,1,$1+$1,$4,$5,$6,$7,0*
20,1,$1+$1,$6,$7,$8,$9,0*
20,1,$1+$1,$8,$9,$2,$3,0*%
G04 Aperture macros list end*
%TA.AperFunction,ComponentPad*%
%ADD10R,1.500000X1.500000*%
%TD*%
%TA.AperFunction,SMDPad,CuDef*%
%ADD11RoundRect,0.160000X-0.160000X0.197500X-0.160000X-0.197500X0.160000X-0.197500X0.160000X0.197500X0*%
%TD*%
%TA.AperFunction,SMDPad,CuDef*%
%ADD12R,3.000000X2.290000*%
%TD*%
%TA.AperFunction,SMDPad,CuDef*%
%ADD13RoundRect,0.150000X0.150000X-0.825000X0.150000X0.825000X-0.150000X0.825000X-0.150000X-0.825000X0*%
%TD*%
%TA.AperFunction,SMDPad,CuDef*%
%ADD14RoundRect,0.160000X-0.197500X-0.160000X0.197500X-0.160000X0.197500X0.160000X-0.197500X0.160000X0*%
%TD*%
%TA.AperFunction,SMDPad,CuDef*%
%ADD15RoundRect,0.155000X-0.155000X0.212500X-0.155000X-0.212500X0.155000X-0.212500X0.155000X0.212500X0*%
%TD*%
%TA.AperFunction,SMDPad,CuDef*%
%ADD16RoundRect,0.237500X-0.237500X0.250000X-0.237500X-0.250000X0.237500X-0.250000X0.237500X0.250000X0*%
%TD*%
%TA.AperFunction,SMDPad,CuDef*%
%ADD17RoundRect,0.250000X0.325000X0.450000X-0.325000X0.450000X-0.325000X-0.450000X0.325000X-0.450000X0*%
%TD*%
%TA.AperFunction,SMDPad,CuDef*%
%ADD18R,0.400000X1.560000*%
%TD*%
%TA.AperFunction,SMDPad,CuDef*%
%ADD19RoundRect,0.250000X0.337500X0.475000X-0.337500X0.475000X-0.337500X-0.475000X0.337500X-0.475000X0*%
%TD*%
%TA.AperFunction,SMDPad,CuDef*%
%ADD20R,1.500000X0.520000*%
%TD*%
%TA.AperFunction,SMDPad,CuDef*%
%ADD21R,1.500000X0.270000*%
%TD*%
%TA.AperFunction,ComponentPad*%
%ADD22O,2.600000X1.300000*%
%TD*%
%TA.AperFunction,ComponentPad*%
%ADD23O,2.300000X1.300000*%
%TD*%
%TA.AperFunction,SMDPad,CuDef*%
%ADD24RoundRect,0.155000X0.212500X0.155000X-0.212500X0.155000X-0.212500X-0.155000X0.212500X-0.155000X0*%
%TD*%
%TA.AperFunction,SMDPad,CuDef*%
%ADD25RoundRect,0.160000X0.197500X0.160000X-0.197500X0.160000X-0.197500X-0.160000X0.197500X-0.160000X0*%
%TD*%
%TA.AperFunction,SMDPad,CuDef*%
%ADD26RoundRect,0.237500X0.237500X-0.250000X0.237500X0.250000X-0.237500X0.250000X-0.237500X-0.250000X0*%
%TD*%
%TA.AperFunction,SMDPad,CuDef*%
%ADD27R,0.650000X1.560000*%
%TD*%
%TA.AperFunction,ViaPad*%
%ADD28C,0.800000*%
%TD*%
%TA.AperFunction,Conductor*%
%ADD29C,0.250000*%
%TD*%
%TA.AperFunction,Conductor*%
%ADD30C,0.200000*%
%TD*%
G04 APERTURE END LIST*
D10*
%TO.P,J7,1,Pin_1*%
%TO.N,BAT+*%
X150990000Y-93049840D03*
%TD*%
%TO.P,J6,1,Pin_1*%
%TO.N,BAT+*%
X150990000Y-87979840D03*
%TD*%
%TO.P,J5,1,Pin_1*%
%TO.N,GND*%
X150990000Y-100680000D03*
%TD*%
%TO.P,J4,1,Pin_1*%
%TO.N,BAT-*%
X150990000Y-95600000D03*
%TD*%
D11*
%TO.P,R5,1*%
%TO.N,BAT+*%
X150190000Y-89870000D03*
%TO.P,R5,2*%
%TO.N,Net-(C2-Pad1)*%
X150190000Y-91065000D03*
%TD*%
D12*
%TO.P,U1,9,PP*%
%TO.N,GND*%
X141510000Y-94480000D03*
D13*
%TO.P,U1,8,CE*%
%TO.N,VIN*%
X139605000Y-92005000D03*
%TO.P,U1,7,~{CHRG}*%
%TO.N,Net-(R1-Pad2)*%
X140875000Y-92005000D03*
%TO.P,U1,6,~{STDBY}*%
%TO.N,Net-(R2-Pad2)*%
X142145000Y-92005000D03*
%TO.P,U1,5,BAT*%
%TO.N,BAT+*%
X143415000Y-92005000D03*
%TO.P,U1,4,VCC*%
%TO.N,VIN*%
X143415000Y-96955000D03*
%TO.P,U1,3,GND*%
%TO.N,GND*%
X142145000Y-96955000D03*
%TO.P,U1,2,PROG*%
%TO.N,Net-(R3-Pad1)*%
X140875000Y-96955000D03*
%TO.P,U1,1,TEMP*%
%TO.N,GND*%
X139605000Y-96955000D03*
%TD*%
D14*
%TO.P,R2,2*%
%TO.N,Net-(R2-Pad2)*%
X137560000Y-87600000D03*
%TO.P,R2,1*%
%TO.N,Net-(D2-Pad1)*%
X136365000Y-87600000D03*
%TD*%
D15*
%TO.P,C2,1*%
%TO.N,Net-(C2-Pad1)*%
X143080000Y-87545000D03*
%TO.P,C2,2*%
%TO.N,BAT-*%
X143080000Y-88680000D03*
%TD*%
D16*
%TO.P,R8,1*%
%TO.N,Net-(P1-PadA8)*%
X136880000Y-96200000D03*
%TO.P,R8,2*%
%TO.N,GND*%
X136880000Y-98025000D03*
%TD*%
D17*
%TO.P,D2,2,A*%
%TO.N,Net-(D1-Pad2)*%
X129945000Y-87610000D03*
%TO.P,D2,1,K*%
%TO.N,Net-(D2-Pad1)*%
X131995000Y-87610000D03*
%TD*%
D18*
%TO.P,U4,1,D*%
%TO.N,unconnected-(U4-Pad1)*%
X148410000Y-94213000D03*
%TO.P,U4,2,S*%
%TO.N,BAT-*%
X147760000Y-94213000D03*
%TO.P,U4,3,S*%
X147100000Y-94213000D03*
%TO.P,U4,4,G*%
%TO.N,/G1*%
X146450000Y-94213000D03*
%TO.P,U4,5,G*%
%TO.N,Net-(U2-Pad3)*%
X146450000Y-99627000D03*
%TO.P,U4,6,S*%
%TO.N,GND*%
X147100000Y-99627000D03*
%TO.P,U4,7,S*%
X147760000Y-99627000D03*
%TO.P,U4,8,D*%
%TO.N,unconnected-(U4-Pad8)*%
X148410000Y-99627000D03*
%TD*%
D19*
%TO.P,C1,2*%
%TO.N,GND*%
X142382500Y-100520000D03*
%TO.P,C1,1*%
%TO.N,BAT+*%
X144457500Y-100520000D03*
%TD*%
D14*
%TO.P,R1,2*%
%TO.N,Net-(R1-Pad2)*%
X137547500Y-101190000D03*
%TO.P,R1,1*%
%TO.N,Net-(D1-Pad1)*%
X136352500Y-101190000D03*
%TD*%
D20*
%TO.P,P1,A1,GND*%
%TO.N,GND*%
X134692000Y-91380000D03*
%TO.P,P1,A4,VBUS*%
%TO.N,VIN*%
X134692000Y-92130000D03*
D21*
%TO.P,P1,A8,SBU1*%
%TO.N,Net-(P1-PadA8)*%
X134692000Y-96230000D03*
D20*
%TO.P,P1,A9,VBUS*%
%TO.N,VIN*%
X134692000Y-96830000D03*
%TO.P,P1,A12,GND*%
%TO.N,GND*%
X134692000Y-97580000D03*
D21*
%TO.P,P1,B8,SBU2*%
%TO.N,Net-(P1-PadB8)*%
X134692000Y-93210000D03*
D22*
%TO.P,P1,S1,SHIELD*%
%TO.N,GND*%
X130240000Y-98800000D03*
X130240000Y-90160000D03*
D23*
X134065000Y-98800000D03*
X134065000Y-90160000D03*
%TD*%
D14*
%TO.P,R6,1*%
%TO.N,/OC*%
X146382121Y-101346000D03*
%TO.P,R6,2*%
%TO.N,GND*%
X147577121Y-101346000D03*
%TD*%
D24*
%TO.P,C3,1*%
%TO.N,VIN*%
X139807500Y-89380000D03*
%TO.P,C3,2*%
%TO.N,GND*%
X138672500Y-89380000D03*
%TD*%
D25*
%TO.P,R9,1*%
%TO.N,VIN*%
X135055000Y-88130000D03*
%TO.P,R9,2*%
%TO.N,Net-(D1-Pad2)*%
X133860000Y-88130000D03*
%TD*%
D26*
%TO.P,R7,1*%
%TO.N,Net-(P1-PadB8)*%
X136920000Y-92930000D03*
%TO.P,R7,2*%
%TO.N,GND*%
X136920000Y-91105000D03*
%TD*%
D17*
%TO.P,D1,2,A*%
%TO.N,Net-(D1-Pad2)*%
X129810000Y-101190000D03*
%TO.P,D1,1,K*%
%TO.N,Net-(D1-Pad1)*%
X131860000Y-101190000D03*
%TD*%
D16*
%TO.P,R3,1*%
%TO.N,Net-(R3-Pad1)*%
X139910000Y-99440000D03*
%TO.P,R3,2*%
%TO.N,GND*%
X139910000Y-101265000D03*
%TD*%
D27*
%TO.P,U2,1,OD*%
%TO.N,/G1*%
X146560000Y-91360000D03*
%TO.P,U2,2,CS*%
%TO.N,/OC*%
X147510000Y-91360000D03*
%TO.P,U2,3,OC*%
%TO.N,Net-(U2-Pad3)*%
X148460000Y-91360000D03*
%TO.P,U2,4,TD*%
%TO.N,unconnected-(U2-Pad4)*%
X148460000Y-88660000D03*
%TO.P,U2,5,VCC*%
%TO.N,Net-(C2-Pad1)*%
X147510000Y-88660000D03*
%TO.P,U2,6,GND*%
%TO.N,BAT-*%
X146560000Y-88660000D03*
%TD*%
D28*
%TO.N,BAT+*%
X147930000Y-87060000D03*
X144505145Y-90449500D03*
%TO.N,/OC*%
X147143886Y-90039278D03*
%TO.N,Net-(U2-Pad3)*%
X149340000Y-92700000D03*
X148230000Y-96850000D03*
%TO.N,/OC*%
X145159500Y-93028743D03*
%TO.N,VIN*%
X143609502Y-94590000D03*
X139100000Y-94280000D03*
%TO.N,GND*%
X141380000Y-99000000D03*
X136650000Y-99770000D03*
X137280000Y-89850000D03*
%TO.N,Net-(R1-Pad2)*%
X140920000Y-89530000D03*
X138180000Y-99280000D03*
%TD*%
D29*
%TO.N,GND*%
X147577121Y-101346000D02*
X150324000Y-101346000D01*
X150324000Y-101346000D02*
X150990000Y-100680000D01*
X147760000Y-99627000D02*
X147760000Y-101163121D01*
X147760000Y-101163121D02*
X147577121Y-101346000D01*
X147100000Y-99627000D02*
X147100000Y-100868879D01*
X147100000Y-100868879D02*
X147577121Y-101346000D01*
%TO.N,/OC*%
X145370000Y-99232000D02*
X145370000Y-93260000D01*
X145370000Y-99232000D02*
X145370000Y-100333879D01*
X145370000Y-100333879D02*
X146382121Y-101346000D01*
D30*
%TO.N,BAT-*%
X150990000Y-95600000D02*
X147930000Y-95600000D01*
X147930000Y-95600000D02*
X147915000Y-95585000D01*
%TO.N,BAT+*%
X150990000Y-87979840D02*
X150990000Y-93049840D01*
X150990000Y-87979840D02*
X150990000Y-89070000D01*
X150990000Y-89070000D02*
X150190000Y-89870000D01*
X147930000Y-87060000D02*
X148565000Y-87060000D01*
X148565000Y-87060000D02*
X149200000Y-87695000D01*
X149200000Y-87695000D02*
X149200000Y-88880000D01*
X149200000Y-88880000D02*
X150190000Y-89870000D01*
X143885000Y-92005000D02*
X143415000Y-92005000D01*
X144460000Y-100517500D02*
X144460000Y-92580000D01*
X144460000Y-92580000D02*
X144080000Y-92200000D01*
X144505145Y-91774855D02*
X144505145Y-90449500D01*
X144080000Y-92200000D02*
X143885000Y-92005000D01*
X144457500Y-100520000D02*
X144460000Y-100517500D01*
X144080000Y-92200000D02*
X144505145Y-91774855D01*
D29*
%TO.N,Net-(C2-Pad1)*%
X147989913Y-89860000D02*
X148610000Y-89860000D01*
X148610000Y-89860000D02*
X148985000Y-89860000D01*
X148985000Y-89860000D02*
X150190000Y-91065000D01*
X147510000Y-88660000D02*
X147810000Y-88960000D01*
X147810000Y-88960000D02*
X147810000Y-89680087D01*
X147810000Y-89680087D02*
X147989913Y-89860000D01*
%TO.N,/OC*%
X147143886Y-90039278D02*
X147143886Y-90043886D01*
X147143886Y-90043886D02*
X147510000Y-90410000D01*
X147510000Y-90410000D02*
X147510000Y-91360000D01*
X147143886Y-90039278D02*
X147143886Y-90255000D01*
%TO.N,Net-(C2-Pad1)*%
X146790000Y-87050000D02*
X147510000Y-87770000D01*
X147510000Y-87770000D02*
X147510000Y-88660000D01*
X145820000Y-87050000D02*
X146790000Y-87050000D01*
X143080000Y-87545000D02*
X145325000Y-87545000D01*
X145325000Y-87545000D02*
X145820000Y-87050000D01*
%TO.N,/G1*%
X146560000Y-91360000D02*
X146560000Y-94103000D01*
X146560000Y-94103000D02*
X146450000Y-94213000D01*
D30*
%TO.N,BAT-*%
X145859500Y-92609500D02*
X145859500Y-95199500D01*
X145859500Y-95199500D02*
X146290000Y-95630000D01*
X145470000Y-92220000D02*
X145859500Y-92609500D01*
X145470000Y-92220000D02*
X145470000Y-92010000D01*
X146290000Y-95630000D02*
X147870000Y-95630000D01*
X147870000Y-95630000D02*
X147915000Y-95585000D01*
D29*
%TO.N,Net-(U2-Pad3)*%
X146450000Y-99627000D02*
X146450000Y-98630000D01*
X146450000Y-98630000D02*
X148230000Y-96850000D01*
X149340000Y-92700000D02*
X149340000Y-92240000D01*
X149340000Y-92240000D02*
X148460000Y-91360000D01*
D30*
%TO.N,BAT-*%
X147915000Y-95585000D02*
X147760000Y-95430000D01*
D29*
%TO.N,/OC*%
X145370000Y-93260000D02*
X145138743Y-93028743D01*
X145138743Y-93028743D02*
X145159500Y-93028743D01*
D30*
%TO.N,BAT-*%
X145470000Y-92010000D02*
X145470000Y-89750000D01*
X145470000Y-89750000D02*
X146560000Y-88660000D01*
X147100000Y-94213000D02*
X147100000Y-94770000D01*
X147100000Y-94770000D02*
X147760000Y-95430000D01*
X147760000Y-95430000D02*
X147760000Y-94213000D01*
X143080000Y-88680000D02*
X144150000Y-89750000D01*
X144150000Y-89750000D02*
X145470000Y-89750000D01*
D29*
%TO.N,VIN*%
X139605000Y-92005000D02*
X139605000Y-93775000D01*
X139605000Y-93775000D02*
X139100000Y-94280000D01*
X143609502Y-94590000D02*
X143609502Y-96760498D01*
X143609502Y-96760498D02*
X143415000Y-96955000D01*
%TO.N,GND*%
X142145000Y-96955000D02*
X141510000Y-96320000D01*
X141510000Y-96320000D02*
X141510000Y-94480000D01*
X139605000Y-96955000D02*
X137950000Y-96955000D01*
X137950000Y-96955000D02*
X136880000Y-98025000D01*
X142145000Y-96955000D02*
X142145000Y-98235000D01*
X142145000Y-98235000D02*
X141380000Y-99000000D01*
X142382500Y-100520000D02*
X142382500Y-100002500D01*
X142382500Y-100002500D02*
X141380000Y-99000000D01*
X141380000Y-99795000D02*
X141380000Y-99000000D01*
X139910000Y-101265000D02*
X141380000Y-99795000D01*
X136880000Y-99540000D02*
X136650000Y-99770000D01*
X136880000Y-98025000D02*
X136880000Y-99540000D01*
X138672500Y-89380000D02*
X137750000Y-89380000D01*
X137750000Y-89380000D02*
X137280000Y-89850000D01*
X136920000Y-90210000D02*
X137280000Y-89850000D01*
X136920000Y-91105000D02*
X136920000Y-90210000D01*
%TO.N,Net-(R3-Pad1)*%
X140875000Y-96955000D02*
X140875000Y-98475000D01*
X140875000Y-98475000D02*
X139910000Y-99440000D01*
%TO.N,Net-(R1-Pad2)*%
X138180000Y-99310000D02*
X138180000Y-99280000D01*
X140920000Y-91960000D02*
X140875000Y-92005000D01*
X140920000Y-89530000D02*
X140920000Y-91960000D01*
X137547500Y-99942500D02*
X138180000Y-99310000D01*
X137547500Y-101190000D02*
X137547500Y-99942500D01*
%TO.N,VIN*%
X139605000Y-92005000D02*
X139605000Y-89582500D01*
X139605000Y-89582500D02*
X139807500Y-89380000D01*
X135525000Y-89185000D02*
X136895000Y-89185000D01*
X136895000Y-89185000D02*
X137620000Y-88460000D01*
X139807500Y-88827500D02*
X139807500Y-89380000D01*
X137620000Y-88460000D02*
X139440000Y-88460000D01*
X139440000Y-88460000D02*
X139807500Y-88827500D01*
%TO.N,Net-(R2-Pad2)*%
X137560000Y-87600000D02*
X140290000Y-87600000D01*
X140290000Y-87600000D02*
X142145000Y-89455000D01*
X142145000Y-89455000D02*
X142145000Y-92005000D01*
%TO.N,Net-(D2-Pad1)*%
X131995000Y-87610000D02*
X132620000Y-87610000D01*
X132620000Y-87610000D02*
X133270000Y-86960000D01*
X133270000Y-86960000D02*
X135725000Y-86960000D01*
X135725000Y-86960000D02*
X136365000Y-87600000D01*
%TO.N,Net-(D1-Pad1)*%
X131860000Y-101190000D02*
X136352500Y-101190000D01*
%TO.N,GND*%
X134692000Y-97580000D02*
X136435000Y-97580000D01*
X136435000Y-97580000D02*
X136880000Y-98025000D01*
X134065000Y-98800000D02*
X134065000Y-98207000D01*
X134065000Y-98207000D02*
X134692000Y-97580000D01*
%TO.N,Net-(P1-PadB8)*%
X134692000Y-93210000D02*
X136640000Y-93210000D01*
X136640000Y-93210000D02*
X136920000Y-92930000D01*
%TO.N,GND*%
X134065000Y-90160000D02*
X134065000Y-90753000D01*
X134065000Y-90753000D02*
X134692000Y-91380000D01*
X134692000Y-91380000D02*
X136645000Y-91380000D01*
X136645000Y-91380000D02*
X136920000Y-91105000D01*
%TO.N,VIN*%
X132215000Y-95985000D02*
X132910000Y-96680000D01*
X131985000Y-93555000D02*
X131720000Y-93820000D01*
X132430000Y-90620000D02*
X132430000Y-93110000D01*
X131720000Y-93820000D02*
X131720000Y-95490000D01*
X132910000Y-96680000D02*
X134285000Y-96680000D01*
X135055000Y-88130000D02*
X135055000Y-88715000D01*
X132430000Y-89770672D02*
X132430000Y-90620000D01*
X133384999Y-92155001D02*
X132430000Y-93110000D01*
X134285000Y-96680000D02*
X134435000Y-96830000D01*
X132860336Y-89340336D02*
X133015673Y-89185000D01*
X134409999Y-92155001D02*
X133384999Y-92155001D01*
X133015673Y-89185000D02*
X135525000Y-89185000D01*
X134435000Y-92130000D02*
X134409999Y-92155001D01*
X132860336Y-89340336D02*
X132430000Y-89770672D01*
X131720000Y-95490000D02*
X132215000Y-95985000D01*
X135055000Y-88715000D02*
X135525000Y-89185000D01*
X132430000Y-93110000D02*
X131985000Y-93555000D01*
%TO.N,Net-(P1-PadA8)*%
X134692000Y-96230000D02*
X136555000Y-96230000D01*
X136555000Y-96230000D02*
X136715000Y-96070000D01*
%TO.N,Net-(D1-Pad2)*%
X131950000Y-91770000D02*
X129710000Y-94010000D01*
X132190000Y-99271827D02*
X130271827Y-101190000D01*
X131950000Y-89230000D02*
X131565000Y-89230000D01*
X131565000Y-89230000D02*
X129945000Y-87610000D01*
X129710000Y-94010000D02*
X129710000Y-95390000D01*
X133280000Y-88130000D02*
X132180000Y-89230000D01*
X132180000Y-89230000D02*
X131950000Y-89230000D01*
X129710000Y-95390000D02*
X132190000Y-97870000D01*
X130271827Y-101190000D02*
X129810000Y-101190000D01*
X132190000Y-97870000D02*
X132190000Y-99271827D01*
X131950000Y-89230000D02*
X131950000Y-91770000D01*
X133860000Y-88130000D02*
X133280000Y-88130000D01*
%TD*%
M02*
