M48
METRIC,TZ
T1C0.400
T2C0.600
T3C1.000
%
G90
G05
T1
X136650Y-99770
X137280Y-89850
X138180Y-99280
X139100Y-94280
X140920Y-89530
X141380Y-99000
X143610Y-94590
X144505Y-90450
X145159Y-93029
X147144Y-90039
X147930Y-87060
X148230Y-96850
X149340Y-92700
T3
X150990Y-87980
X150990Y-93050
X150990Y-95600
X150990Y-100680
T2
G00X130890Y-90160
M15
G01X129590Y-90160
M16
G05
G00X130890Y-98800
M15
G01X129590Y-98800
M16
G05
G00X134565Y-90160
M15
G01X133565Y-90160
M16
G05
G00X134565Y-98800
M15
G01X133565Y-98800
M16
G05
T0
M30
