%TF.GenerationSoftware,KiCad,Pcbnew,6.0.11+dfsg-1~bpo11+1*%
%TF.CreationDate,2023-03-12T17:24:38+00:00*%
%TF.ProjectId,tp4056,74703430-3536-42e6-9b69-6361645f7063,rev?*%
%TF.SameCoordinates,Original*%
%TF.FileFunction,Soldermask,Top*%
%TF.FilePolarity,Negative*%
%FSLAX46Y46*%
G04 Gerber Fmt 4.6, Leading zero omitted, Abs format (unit mm)*
G04 Created by KiCad (PCBNEW 6.0.11+dfsg-1~bpo11+1) date 2023-03-12 17:24:38*
%MOMM*%
%LPD*%
G01*
G04 APERTURE LIST*
G04 Aperture macros list*
%AMRoundRect*
0 Rectangle with rounded corners*
0 $1 Rounding radius*
0 $2 $3 $4 $5 $6 $7 $8 $9 X,Y pos of 4 corners*
0 Add a 4 corners polygon primitive as box body*
4,1,4,$2,$3,$4,$5,$6,$7,$8,$9,$2,$3,0*
0 Add four circle primitives for the rounded corners*
1,1,$1+$1,$2,$3*
1,1,$1+$1,$4,$5*
1,1,$1+$1,$6,$7*
1,1,$1+$1,$8,$9*
0 Add four rect primitives between the rounded corners*
20,1,$1+$1,$2,$3,$4,$5,0*
20,1,$1+$1,$4,$5,$6,$7,0*
20,1,$1+$1,$6,$7,$8,$9,0*
20,1,$1+$1,$8,$9,$2,$3,0*%
G04 Aperture macros list end*
%ADD10R,1.500000X1.500000*%
%ADD11RoundRect,0.160000X-0.160000X0.197500X-0.160000X-0.197500X0.160000X-0.197500X0.160000X0.197500X0*%
%ADD12R,3.000000X2.290000*%
%ADD13RoundRect,0.150000X0.150000X-0.825000X0.150000X0.825000X-0.150000X0.825000X-0.150000X-0.825000X0*%
%ADD14RoundRect,0.160000X-0.197500X-0.160000X0.197500X-0.160000X0.197500X0.160000X-0.197500X0.160000X0*%
%ADD15RoundRect,0.155000X-0.155000X0.212500X-0.155000X-0.212500X0.155000X-0.212500X0.155000X0.212500X0*%
%ADD16RoundRect,0.237500X-0.237500X0.250000X-0.237500X-0.250000X0.237500X-0.250000X0.237500X0.250000X0*%
%ADD17RoundRect,0.250000X0.325000X0.450000X-0.325000X0.450000X-0.325000X-0.450000X0.325000X-0.450000X0*%
%ADD18R,0.400000X1.560000*%
%ADD19RoundRect,0.250000X0.337500X0.475000X-0.337500X0.475000X-0.337500X-0.475000X0.337500X-0.475000X0*%
%ADD20O,0.600000X0.850000*%
%ADD21C,0.600000*%
%ADD22R,1.500000X0.520000*%
%ADD23R,1.500000X0.270000*%
%ADD24O,2.600000X1.300000*%
%ADD25O,2.300000X1.300000*%
%ADD26RoundRect,0.155000X0.212500X0.155000X-0.212500X0.155000X-0.212500X-0.155000X0.212500X-0.155000X0*%
%ADD27RoundRect,0.160000X0.197500X0.160000X-0.197500X0.160000X-0.197500X-0.160000X0.197500X-0.160000X0*%
%ADD28RoundRect,0.237500X0.237500X-0.250000X0.237500X0.250000X-0.237500X0.250000X-0.237500X-0.250000X0*%
%ADD29R,0.650000X1.560000*%
G04 APERTURE END LIST*
D10*
%TO.C,J7*%
X150990000Y-93049840D03*
%TD*%
%TO.C,J6*%
X150990000Y-87979840D03*
%TD*%
%TO.C,J5*%
X150990000Y-100680000D03*
%TD*%
%TO.C,J4*%
X150990000Y-95600000D03*
%TD*%
D11*
%TO.C,R5*%
X150190000Y-89870000D03*
X150190000Y-91065000D03*
%TD*%
D12*
%TO.C,U1*%
X141510000Y-94480000D03*
D13*
X139605000Y-92005000D03*
X140875000Y-92005000D03*
X142145000Y-92005000D03*
X143415000Y-92005000D03*
X143415000Y-96955000D03*
X142145000Y-96955000D03*
X140875000Y-96955000D03*
X139605000Y-96955000D03*
%TD*%
D14*
%TO.C,R2*%
X137560000Y-87600000D03*
X136365000Y-87600000D03*
%TD*%
D15*
%TO.C,C2*%
X143080000Y-87545000D03*
X143080000Y-88680000D03*
%TD*%
D16*
%TO.C,R8*%
X136880000Y-96200000D03*
X136880000Y-98025000D03*
%TD*%
D17*
%TO.C,D2*%
X129945000Y-87610000D03*
X131995000Y-87610000D03*
%TD*%
D18*
%TO.C,U4*%
X148410000Y-94213000D03*
X147760000Y-94213000D03*
X147100000Y-94213000D03*
X146450000Y-94213000D03*
X146450000Y-99627000D03*
X147100000Y-99627000D03*
X147760000Y-99627000D03*
X148410000Y-99627000D03*
%TD*%
D19*
%TO.C,C1*%
X142382500Y-100520000D03*
X144457500Y-100520000D03*
%TD*%
D14*
%TO.C,R1*%
X137547500Y-101190000D03*
X136352500Y-101190000D03*
%TD*%
D20*
%TO.C,P1*%
X133340000Y-97480000D03*
D21*
X133340000Y-91480000D03*
D22*
X134692000Y-91380000D03*
X134692000Y-92130000D03*
D23*
X134692000Y-96230000D03*
D22*
X134692000Y-96830000D03*
X134692000Y-97580000D03*
D23*
X134692000Y-93210000D03*
D24*
X130240000Y-98800000D03*
X130240000Y-90160000D03*
D25*
X134065000Y-98800000D03*
X134065000Y-90160000D03*
%TD*%
D14*
%TO.C,R6*%
X146382121Y-101346000D03*
X147577121Y-101346000D03*
%TD*%
D26*
%TO.C,C3*%
X139807500Y-89380000D03*
X138672500Y-89380000D03*
%TD*%
D27*
%TO.C,R9*%
X135055000Y-88130000D03*
X133860000Y-88130000D03*
%TD*%
D28*
%TO.C,R7*%
X136920000Y-92930000D03*
X136920000Y-91105000D03*
%TD*%
D17*
%TO.C,D1*%
X129810000Y-101190000D03*
X131860000Y-101190000D03*
%TD*%
D16*
%TO.C,R3*%
X139910000Y-99440000D03*
X139910000Y-101265000D03*
%TD*%
D29*
%TO.C,U2*%
X146560000Y-91360000D03*
X147510000Y-91360000D03*
X148460000Y-91360000D03*
X148460000Y-88660000D03*
X147510000Y-88660000D03*
X146560000Y-88660000D03*
%TD*%
M02*
